<?xml version="1.0" standalone="no"?>
<!DOCTYPE svg PUBLIC "-//W3C//DTD SVG 20010904//EN"
 "http://www.w3.org/TR/2001/REC-SVG-20010904/DTD/svg10.dtd">
<svg version="1.0" xmlns="http://www.w3.org/2000/svg"
 width="1118.000000pt" height="719.000000pt" viewBox="0 0 1118.000000 719.000000"
 preserveAspectRatio="xMidYMid meet">
<metadata>
Created by potrace 1.16, written by Peter Selinger 2001-2019
</metadata>
<g transform="translate(0.000000,719.000000) scale(0.100000,-0.100000)"
fill="#000000" stroke="none">
<path d="M0 4980 l0 -2209 153 -4 152 -3 -152 -2 -153 -2 0 -1380 0 -1380
1965 0 1965 0 3 548 2 547 3 -547 2 -548 820 0 820 0 0 843 0 843 -812 -4
c-447 -2 -819 -5 -825 -7 -9 -3 -13 -55 -16 -192 -1 -103 -3 135 -5 530 l-2
717 -157 0 c-248 0 -1756 11 -2648 20 -663 7 -552 7 610 4 781 -2 1968 -7
2637 -11 l1218 -6 2 1914 c1 1053 5 1851 8 1774 4 -77 5 -1554 2 -3282 l-4
-3143 2796 0 2796 0 0 3595 0 3595 -5590 0 -5590 0 0 -2210z"/>
<path d="M3930 2440 l0 -290 310 0 311 0 -2 277 c0 152 -3 282 -6 290 -4 10
-65 13 -309 13 l-304 0 0 -290z"/>
<path d="M4560 2217 l0 -517 510 0 510 0 0 510 0 510 -187 0 c-104 0 -333 3
-510 7 l-323 6 0 -516z"/>
<path d="M3950 2113 c0 -16 7 -52 15 -82 45 -172 175 -303 323 -327 l42 -7 0
222 0 221 -190 0 -190 0 0 -27z"/>
<path d="M3931 1898 l-1 -208 163 0 162 1 -62 29 c-35 16 -84 50 -111 77 -54
54 -116 169 -137 254 -12 50 -13 40 -14 -153z"/>
<path d="M4350 1830 c0 -71 4 -130 8 -130 21 0 102 64 125 98 25 39 57 120 57
147 0 12 -18 15 -95 15 l-95 0 0 -130z"/>
</g>
</svg>
